<?xml version="1.0" encoding="UTF-8"?>
<svg version="1.1" xmlns="http://www.w3.org/2000/svg" width="1536" height="1024">
<path d="M0 0 C506.88 0 1013.76 0 1536 0 C1536 337.92 1536 675.84 1536 1024 C1029.12 1024 522.24 1024 0 1024 C0 686.08 0 348.16 0 0 Z " fill="#FEFEFE" transform="translate(0,0)"/>
<path d="M0 0 C1.91083021 -0.00807831 1.91083021 -0.00807831 3.86026305 -0.01631981 C7.35736797 -0.03064343 10.85423461 -0.02657126 14.35135186 -0.019153 C18.13812605 -0.01439078 21.92485091 -0.02695801 25.71160889 -0.03717041 C33.1154044 -0.0543048 40.51911485 -0.05520954 47.92292503 -0.04995751 C53.94556031 -0.04590426 59.96817058 -0.04737303 65.99080467 -0.05270576 C66.85033644 -0.05345419 67.70986822 -0.05420261 68.5954464 -0.05497371 C70.34199877 -0.0565053 72.08855112 -0.05804365 73.83510347 -0.05958868 C90.18832318 -0.07329453 106.54149495 -0.0678897 122.89471354 -0.05640347 C137.82726836 -0.04647488 152.75969921 -0.05940869 167.69223491 -0.08333766 C183.0563852 -0.10777115 198.42047785 -0.11732599 213.78464717 -0.11068493 C222.39785823 -0.10720191 231.01097402 -0.10936382 239.6241703 -0.12693596 C246.95692036 -0.1417113 254.28950807 -0.14222424 261.62225512 -0.12486505 C265.35699571 -0.11639595 269.09144694 -0.11410401 272.82617188 -0.1295166 C301.60953501 -0.23978541 301.60953501 -0.23978541 314.69963074 4.38768005 C315.80548429 4.77600793 316.91133783 5.1643358 318.0507021 5.56443119 C329.89731565 9.95031512 339.76419804 17.6039525 348.69963074 26.38768005 C349.73023621 27.39894958 349.73023621 27.39894958 350.78166199 28.4306488 C370.75947757 49.43296775 375.18185421 76.55152125 375.08781433 104.43284607 C375.09188997 106.48818743 375.09723736 108.54352659 375.10374451 110.59886169 C375.11730509 116.12980033 375.11216665 121.66056922 375.10260725 127.19151044 C375.09495283 133.00958504 375.10207209 138.82764619 375.10676575 144.64572144 C375.11220615 154.41056396 375.10507644 164.17533816 375.09074402 173.94017029 C375.07441629 185.19364793 375.07971392 196.44696247 375.09622324 207.70043617 C375.10988169 217.40287364 375.11173666 227.10526231 375.10390723 236.8077063 C375.0992552 242.58492098 375.0985374 248.36205925 375.10851669 254.13926888 C375.11724799 259.5723361 375.11105299 265.00519508 375.09383392 270.43824005 C375.08990196 272.41981347 375.09094587 274.40140473 375.09762192 276.38297081 C375.18886425 306.24138613 366.97664819 331.86247605 346.29728699 353.9540863 C328.23559419 371.23440803 304.78421704 378.00275527 280.26579285 377.62962341 C278.78878768 377.61895802 277.31177075 377.6098298 275.83474731 377.60209656 C272.68698512 377.5835156 269.53945416 377.55650875 266.39181328 377.523283 C261.40063665 377.47292602 256.40967441 377.45598092 251.41827393 377.44567871 C249.69956485 377.44172975 247.98085585 377.43774214 246.26214695 377.43371677 C245.40231587 377.43171147 244.54248478 377.42970616 243.65659821 377.42764008 C232.06172182 377.39777125 220.46752268 377.33975083 208.87321472 377.21995544 C201.01521504 377.13903299 193.15824837 377.10134714 185.29982382 377.11159617 C181.15583841 377.11519219 177.01457393 377.0972052 172.87115288 377.02541924 C152.53972041 375.78678894 152.53972041 375.78678894 135.0065155 384.12425232 C133.60177021 385.64856009 132.2990495 387.20414681 131.02679634 388.84015083 C128.62992039 391.63500595 125.64552901 393.70695281 122.69963074 395.88768005 C117.91080745 399.5884714 113.26934446 403.41978131 108.69963074 407.38768005 C104.12954417 411.35590254 99.48454299 415.18129303 94.69963074 418.88768005 C89.24078031 423.11807892 83.96770934 427.52312947 78.74528503 432.04124451 C73.4801254 436.59439495 68.10536649 441.00249618 62.69963074 445.38768005 C60.84500363 446.90795185 58.9908396 448.42878875 57.13713074 449.95018005 C55.32509857 451.42991979 53.51260132 452.90909021 51.69963074 454.38768005 C50.78439636 455.13791443 49.86916199 455.8881488 48.92619324 456.66111755 C48.04705261 457.37525818 47.16791199 458.0893988 46.26213074 458.82518005 C45.4796698 459.46326599 44.69720886 460.10135193 43.89103699 460.7587738 C39.84497755 463.76627253 36.88365911 464.85365488 31.72306824 464.70018005 C27.08987143 463.98462842 24.38971141 461.24536354 21.55613708 457.72358704 C19.41438246 453.875125 19.15737526 450.91946669 19.24552917 446.63816833 C19.24494507 445.88626724 19.24436096 445.13436615 19.24375916 444.35968018 C19.24653011 441.89196962 19.27757321 439.42549021 19.30900574 436.95799255 C19.31647169 435.24021565 19.32216295 433.5224302 19.32615662 431.80464172 C19.34138513 427.2966587 19.38064257 422.78919611 19.42497253 418.28141785 C19.46598555 413.67628519 19.48418048 409.07106794 19.50431824 404.46580505 C19.54713984 395.43953548 19.61535713 386.41365115 19.69963074 377.38768005 C18.83960953 377.39553528 17.97958832 377.4033905 17.09350586 377.41148376 C13.86027599 377.43725944 10.62709902 377.45595779 7.39379883 377.47007751 C6.00236269 377.47755635 4.61093807 377.48774308 3.21954346 377.50083923 C-18.97111805 377.70426319 -37.98188531 371.6740635 -55.30036926 357.38768005 C-56.13825989 356.72381287 -56.97615051 356.05994568 -57.83943176 355.3759613 C-75.58012903 340.5188139 -85.95038439 317.82329542 -88.10170126 295.02220654 C-88.39802461 291.0926773 -88.44516013 287.18365867 -88.44081116 283.24446106 C-88.44378228 282.38149276 -88.4467534 281.51852447 -88.44981456 280.62940562 C-88.4584132 277.76805857 -88.46000223 274.90675379 -88.46150208 272.0453949 C-88.4661365 269.98123589 -88.47116199 267.91707772 -88.47654724 265.85292053 C-88.48961258 260.26584003 -88.49610462 254.67877152 -88.5005579 249.09167814 C-88.50349795 245.59422999 -88.50760447 242.09678505 -88.51206207 238.59933853 C-88.52572117 227.63656645 -88.53539575 216.67380178 -88.53926396 205.71102178 C-88.5437418 193.09314181 -88.56128375 180.47537032 -88.59026456 167.85752332 C-88.61193828 158.07880637 -88.62197127 148.30011981 -88.62330508 138.52137911 C-88.62434897 132.69262485 -88.63016795 126.86397278 -88.64812469 121.03524399 C-88.66470421 115.54730048 -88.66671328 110.05953492 -88.65798569 104.57157516 C-88.65722059 102.56903606 -88.66148747 100.56648698 -88.67144394 98.56397247 C-88.79855208 71.3829635 -82.58262072 48.30200663 -64.30036926 27.38768005 C-63.72029114 26.7122113 -63.14021301 26.03674255 -62.54255676 25.34080505 C-46.5248632 8.00563886 -23.16403687 -0.1194795 0 0 Z " fill="#74EAD1" transform="translate(355.3003692626953,143.61231994628906)"/>
<path d="M0 0 C1.18144567 -0.00297112 2.36289133 -0.00594224 3.58013839 -0.0090034 C6.85162827 -0.01616763 10.1230861 -0.01886148 13.39458263 -0.01960087 C16.92653861 -0.02145623 20.45848331 -0.02900622 23.99043274 -0.03573608 C31.71204544 -0.04930313 39.43365294 -0.05534223 47.15527558 -0.05974674 C51.98273659 -0.0625132 56.8101956 -0.06675141 61.63765526 -0.07125092 C75.01924546 -0.08344388 88.40083406 -0.09374156 101.7824297 -0.09712601 C103.06656108 -0.09745536 103.06656108 -0.09745536 104.37663452 -0.09779136 C105.23471298 -0.09800964 106.09279143 -0.09822791 106.97687227 -0.09845281 C108.71551311 -0.09889626 110.45415396 -0.09934283 112.1927948 -0.09979248 C113.48641972 -0.10012463 113.48641972 -0.10012463 114.80617847 -0.10046348 C128.75880051 -0.10440564 142.71137012 -0.12184172 156.66397194 -0.145152 C171.00975348 -0.16892431 185.3555088 -0.18133061 199.70131034 -0.18249393 C207.74735251 -0.18340765 215.79332647 -0.18908279 223.83934975 -0.20731354 C230.69570743 -0.22279442 237.55197584 -0.22778847 244.4083477 -0.21957543 C247.9000972 -0.21569631 251.39166737 -0.21646237 254.88339424 -0.23063278 C285.19921892 -0.33276127 311.34620629 3.33158191 334.11100769 24.90606689 C349.87607497 40.67113417 362.3569525 62.47472329 362.49311239 85.33381248 C362.49283584 86.54940294 362.49283584 86.54940294 362.49255371 87.78955078 C362.4962304 88.65979204 362.49990709 89.53003331 362.50369519 90.42664552 C362.51470763 93.34264354 362.51857182 96.2586059 362.52238464 99.17462158 C362.52865142 101.2659771 362.53529841 103.3573315 362.54229736 105.44868469 C362.56332475 112.31988756 362.57370247 119.19109061 362.58366394 126.06231689 C362.58771279 128.43221295 362.59182975 130.80210888 362.59601402 133.1720047 C362.61506731 144.31366249 362.62929483 155.45531367 362.63762599 166.59698462 C362.64738193 179.43057755 362.67365799 192.26399724 362.71412688 205.09752917 C362.74437238 215.03242214 362.75910308 224.96726571 362.762407 234.9022038 C362.76474898 240.82779204 362.77359724 246.75319525 362.79886818 252.67873383 C362.82229996 258.26350126 362.82632181 263.84796386 362.8161068 269.43276787 C362.81561489 271.47036445 362.82183212 273.50797681 362.83566284 275.5455265 C363.01892356 304.17127001 354.73566007 328.39860801 334.34538269 349.14044189 C333.65960144 349.83911377 332.97382019 350.53778564 332.26725769 351.25762939 C315.75043728 366.97919549 292.92590711 374.23609739 270.54069519 374.15997314 C269.75186951 374.15856323 268.96304382 374.15715332 268.15031433 374.15570068 C266.2153339 374.15203872 264.28035731 374.14643459 262.34538269 374.14044189 C262.35426514 375.1920047 262.36314758 376.2435675 262.37229919 377.32699585 C262.45343516 387.24374755 262.5133722 397.16043178 262.55263138 407.07744026 C262.57349361 412.17573012 262.60178652 417.27375173 262.6471405 422.37188721 C262.69064665 427.29318753 262.71453006 432.21423004 262.72489166 437.13570786 C262.73227445 439.01198255 262.74669142 440.88824336 262.76830292 442.76440811 C262.79740046 445.39543238 262.80133607 448.02539553 262.79948425 450.65655518 C262.81386536 451.4297963 262.82824646 452.20303741 262.84306335 452.99971008 C262.80352839 458.20127313 261.65730086 461.15061738 258.34538269 465.14044189 C253.96833329 468.05847483 250.56074498 468.78092498 245.34538269 468.14044189 C239.63367024 465.66177423 235.55373033 461.76611702 231.01335144 457.56231689 C228.3817488 455.17345359 225.67664108 452.93058773 222.90788269 450.70294189 C218.13542066 446.84335586 213.6142916 442.76844199 209.09928894 438.61309814 C205.51330985 435.39334671 201.77836777 432.38139014 198.02897644 429.35528564 C195.39829712 427.18411363 192.86595845 424.93802833 190.34538269 422.64044189 C186.92798897 419.52585521 183.44015919 416.54857569 179.84538269 413.64044189 C175.38262056 410.03011747 171.11818736 406.25616261 166.87663269 402.39044189 C163.37009969 399.27352367 159.7197152 396.34729663 156.07194519 393.39825439 C152.6161259 390.53655877 149.31206154 387.52942118 146.02507019 384.47637939 C144.69862488 383.32009033 144.69862488 383.32009033 143.34538269 382.14044189 C142.77303737 381.56958233 142.20069204 380.99872276 141.61100292 380.41056442 C134.88122965 374.2960504 129.06133384 374.16235661 120.23527527 374.30157471 C118.82810004 374.29859261 117.42092852 374.29248822 116.01377869 374.28352356 C112.99820605 374.27094609 109.983796 374.2801965 106.96831703 374.30683136 C102.18741365 374.34890737 97.40733484 374.34148468 92.62631226 374.32788086 C85.0534644 374.31213833 77.48110747 374.32928704 69.90832108 374.3605516 C56.37436909 374.41582339 42.84041024 374.42431245 29.3063671 374.40704799 C24.56748008 374.40241645 19.82905444 374.41494904 15.0902468 374.44215345 C12.12430421 374.45657184 9.15843283 374.45870254 6.19245911 374.45811272 C4.19132122 374.46157712 2.19022662 374.48014043 0.18917847 374.49940491 C-24.66225102 374.45032126 -45.80651007 364.26842324 -63.71711731 347.45294189 C-80.65317625 329.86942798 -89.80745744 305.66439178 -89.80178833 281.40267944 C-89.80546502 280.54706354 -89.80914171 279.69144764 -89.81292981 278.80990398 C-89.82390401 275.95539609 -89.82779984 273.10092469 -89.83161926 270.24639893 C-89.8378888 268.19415676 -89.84453603 266.14191572 -89.85153198 264.0896759 C-89.87252197 257.35921003 -89.88293182 250.62874407 -89.89289856 243.89825439 C-89.89694845 241.57478702 -89.90106544 239.25131977 -89.90524864 236.92785263 C-89.92429168 226.00618335 -89.93852281 215.08452078 -89.94686061 204.1628381 C-89.95662044 191.58848603 -89.98291106 179.01431057 -90.0233615 166.44002068 C-90.05360901 156.70041484 -90.06833778 146.96085937 -90.07164162 137.2212075 C-90.07398283 131.41413705 -90.08282143 125.60725547 -90.1081028 119.80023575 C-90.13153906 114.32870704 -90.13555469 108.85748946 -90.12534142 103.38592339 C-90.12484966 101.39025138 -90.13106228 99.39456324 -90.14489746 97.39893913 C-90.33094684 68.9442935 -81.69841194 44.83360991 -61.77961731 23.95294189 C-45.08089538 7.86672135 -22.89665935 -0.01798375 0 0 Z " fill="#FE6880" transform="translate(798.6546173095703,437.85955810546875)"/>
<path d="M0 0 C1.91083021 -0.00807831 1.91083021 -0.00807831 3.86026305 -0.01631981 C7.35736797 -0.03064343 10.85423461 -0.02657126 14.35135186 -0.019153 C18.13812605 -0.01439078 21.92485091 -0.02695801 25.71160889 -0.03717041 C33.1154044 -0.0543048 40.51911485 -0.05520954 47.92292503 -0.04995751 C53.94556031 -0.04590426 59.96817058 -0.04737303 65.99080467 -0.05270576 C66.85033644 -0.05345419 67.70986822 -0.05420261 68.5954464 -0.05497371 C70.34199877 -0.0565053 72.08855112 -0.05804365 73.83510347 -0.05958868 C90.18832318 -0.07329453 106.54149495 -0.0678897 122.89471354 -0.05640347 C137.82726836 -0.04647488 152.75969921 -0.05940869 167.69223491 -0.08333766 C183.0563852 -0.10777115 198.42047785 -0.11732599 213.78464717 -0.11068493 C222.39785823 -0.10720191 231.01097402 -0.10936382 239.6241703 -0.12693596 C246.95692036 -0.1417113 254.28950807 -0.14222424 261.62225512 -0.12486505 C265.35699571 -0.11639595 269.09144694 -0.11410401 272.82617188 -0.1295166 C301.60953501 -0.23978541 301.60953501 -0.23978541 314.69963074 4.38768005 C315.80548429 4.77600793 316.91133783 5.1643358 318.0507021 5.56443119 C329.89731565 9.95031512 339.76419804 17.6039525 348.69963074 26.38768005 C349.73023621 27.39894958 349.73023621 27.39894958 350.78166199 28.4306488 C370.75947757 49.43296775 375.18185421 76.55152125 375.08781433 104.43284607 C375.09188997 106.48818743 375.09723736 108.54352659 375.10374451 110.59886169 C375.11730509 116.12980033 375.11216665 121.66056922 375.10260725 127.19151044 C375.09495283 133.00958504 375.10207209 138.82764619 375.10676575 144.64572144 C375.11220615 154.41056396 375.10507644 164.17533816 375.09074402 173.94017029 C375.07441629 185.19364793 375.07971392 196.44696247 375.09622324 207.70043617 C375.10988169 217.40287364 375.11173666 227.10526231 375.10390723 236.8077063 C375.0992552 242.58492098 375.0985374 248.36205925 375.10851669 254.13926888 C375.11724799 259.5723361 375.11105299 265.00519508 375.09383392 270.43824005 C375.08990196 272.41981347 375.09094587 274.40140473 375.09762192 276.38297081 C375.18886425 306.24138613 366.97664819 331.86247605 346.29728699 353.9540863 C328.23559419 371.23440803 304.78421704 378.00275527 280.26579285 377.62962341 C278.78878768 377.61895802 277.31177075 377.6098298 275.83474731 377.60209656 C272.68698512 377.5835156 269.53945416 377.55650875 266.39181328 377.523283 C261.40063665 377.47292602 256.40967441 377.45598092 251.41827393 377.44567871 C249.69956485 377.44172975 247.98085585 377.43774214 246.26214695 377.43371677 C245.40231587 377.43171147 244.54248478 377.42970616 243.65659821 377.42764008 C232.06172182 377.39777125 220.46752268 377.33975083 208.87321472 377.21995544 C201.01521504 377.13903299 193.15824837 377.10134714 185.29982382 377.11159617 C181.15583841 377.11519219 177.01457393 377.0972052 172.87115288 377.02541924 C152.53972041 375.78678894 152.53972041 375.78678894 135.0065155 384.12425232 C133.60177021 385.64856009 132.2990495 387.20414681 131.02679634 388.84015083 C128.62992039 391.63500595 125.64552901 393.70695281 122.69963074 395.88768005 C117.91080745 399.5884714 113.26934446 403.41978131 108.69963074 407.38768005 C104.12954417 411.35590254 99.48454299 415.18129303 94.69963074 418.88768005 C89.24078031 423.11807892 83.96770934 427.52312947 78.74528503 432.04124451 C73.4801254 436.59439495 68.10536649 441.00249618 62.69963074 445.38768005 C60.84500363 446.90795185 58.9908396 448.42878875 57.13713074 449.95018005 C55.32509857 451.42991979 53.51260132 452.90909021 51.69963074 454.38768005 C50.78439636 455.13791443 49.86916199 455.8881488 48.92619324 456.66111755 C48.04705261 457.37525818 47.16791199 458.0893988 46.26213074 458.82518005 C45.4796698 459.46326599 44.69720886 460.10135193 43.89103699 460.7587738 C39.84497755 463.76627253 36.88365911 464.85365488 31.72306824 464.70018005 C27.08987143 463.98462842 24.38971141 461.24536354 21.55613708 457.72358704 C19.41438246 453.875125 19.15737526 450.91946669 19.24552917 446.63816833 C19.24494507 445.88626724 19.24436096 445.13436615 19.24375916 444.35968018 C19.24653011 441.89196962 19.27757321 439.42549021 19.30900574 436.95799255 C19.31647169 435.24021565 19.32216295 433.5224302 19.32615662 431.80464172 C19.34138513 427.2966587 19.38064257 422.78919611 19.42497253 418.28141785 C19.46598555 413.67628519 19.48418048 409.07106794 19.50431824 404.46580505 C19.54713984 395.43953548 19.61535713 386.41365115 19.69963074 377.38768005 C18.83960953 377.39553528 17.97958832 377.4033905 17.09350586 377.41148376 C13.86027599 377.43725944 10.62709902 377.45595779 7.39379883 377.47007751 C6.00236269 377.47755635 4.61093807 377.48774308 3.21954346 377.50083923 C-18.97111805 377.70426319 -37.98188531 371.6740635 -55.30036926 357.38768005 C-56.13825989 356.72381287 -56.97615051 356.05994568 -57.83943176 355.3759613 C-75.58012903 340.5188139 -85.95038439 317.82329542 -88.10170126 295.02220654 C-88.39802461 291.0926773 -88.44516013 287.18365867 -88.44081116 283.24446106 C-88.44378228 282.38149276 -88.4467534 281.51852447 -88.44981456 280.62940562 C-88.4584132 277.76805857 -88.46000223 274.90675379 -88.46150208 272.0453949 C-88.4661365 269.98123589 -88.47116199 267.91707772 -88.47654724 265.85292053 C-88.48961258 260.26584003 -88.49610462 254.67877152 -88.5005579 249.09167814 C-88.50349795 245.59422999 -88.50760447 242.09678505 -88.51206207 238.59933853 C-88.52572117 227.63656645 -88.53539575 216.67380178 -88.53926396 205.71102178 C-88.5437418 193.09314181 -88.56128375 180.47537032 -88.59026456 167.85752332 C-88.61193828 158.07880637 -88.62197127 148.30011981 -88.62330508 138.52137911 C-88.62434897 132.69262485 -88.63016795 126.86397278 -88.64812469 121.03524399 C-88.66470421 115.54730048 -88.66671328 110.05953492 -88.65798569 104.57157516 C-88.65722059 102.56903606 -88.66148747 100.56648698 -88.67144394 98.56397247 C-88.79855208 71.3829635 -82.58262072 48.30200663 -64.30036926 27.38768005 C-63.72029114 26.7122113 -63.14021301 26.03674255 -62.54255676 25.34080505 C-46.5248632 8.00563886 -23.16403687 -0.1194795 0 0 Z M-47.88240051 52.5322113 C-60.16022674 69.37095474 -61.60291296 86.20526111 -61.59089661 106.27684021 C-61.5968893 108.28041329 -61.60369653 110.28398408 -61.61125183 112.28755188 C-61.6288454 117.705237 -61.63360445 123.12285885 -61.6348834 128.54056978 C-61.63630954 131.93334254 -61.64058791 135.32609945 -61.64587784 138.71886826 C-61.66435742 150.57804629 -61.67255121 162.4371795 -61.67097473 174.29637146 C-61.66977449 185.3134268 -61.6908593 196.33028587 -61.72246206 207.34729159 C-61.74870241 216.83645719 -61.75933875 226.325559 -61.75806391 235.81476057 C-61.75755648 241.46861966 -61.76311763 247.12230423 -61.78442001 252.77612686 C-61.80393312 258.09998633 -61.8038383 263.42350715 -61.78938675 268.7473793 C-61.78731355 270.68822226 -61.79190935 272.62908715 -61.80410767 274.56989288 C-61.93230505 296.40127748 -58.16190124 316.12013617 -42.30036926 332.38768005 C-27.75814743 345.11721597 -12.57169721 349.4687728 6.33634949 349.5634613 C8.14821038 349.58663479 9.96005942 349.61075107 11.77189636 349.63572693 C14.589445 349.6709309 17.40654612 349.70027194 20.22428894 349.71360779 C22.97050206 349.72909888 25.7154676 349.76927347 28.46134949 349.8134613 C29.29897324 349.81155289 30.13659698 349.80964447 30.99960327 349.80767822 C36.31840551 349.91851692 39.57972843 350.70602322 43.69963074 354.38768005 C45.63028222 358.20238778 45.96660278 361.40155913 46.01847839 365.64671326 C46.03834808 366.88762222 46.05821777 368.12853119 46.07868958 369.40704346 C46.09056403 370.7508476 46.102227 372.09465362 46.11369324 373.4384613 C46.13241572 374.82138206 46.15198994 376.20429152 46.17237854 377.58718872 C46.22359192 381.21534044 46.26327504 384.84352914 46.30052185 388.47184753 C46.34062949 392.17891001 46.39169089 395.88582004 46.44181824 399.59275818 C46.53844956 406.85762735 46.62289487 414.1225706 46.69963074 421.38768005 C50.49668404 419.59865454 53.43305213 417.19626866 56.57463074 414.45018005 C61.17177115 410.49100481 65.83953085 406.66364523 70.63713074 402.95018005 C76.11495451 398.69778949 81.40977736 394.27100401 86.6537323 389.73435974 C92.77323658 384.44228139 99.04632699 379.34718131 105.33244324 374.25486755 C111.24865433 369.4425559 117.07124859 364.53423057 122.84147644 359.54856873 C133.60055336 350.2655894 133.60055336 350.2655894 141.91978455 350.25637817 C143.22325333 350.25237 144.52672211 350.24836182 145.86968994 350.24423218 C147.31788637 350.2447073 148.76608279 350.24524342 150.21427917 350.24583435 C151.7371633 350.24280256 153.26004651 350.23928105 154.78292847 350.23530579 C158.06665396 350.22741329 161.35036857 350.22227033 164.63410187 350.21901512 C169.83886014 350.21309739 175.04355027 350.19654621 180.24827576 350.17767334 C182.03220745 350.17133546 183.81613918 350.16500984 185.60007095 350.15869617 C186.49368788 350.15553036 187.38730481 350.15236455 188.30800104 350.14910281 C200.42372067 350.10709934 212.53940963 350.07409962 224.65519714 350.06175232 C232.8275955 350.05333821 240.99982599 350.03071881 249.17214036 349.99239665 C253.49136643 349.97273737 257.81034216 349.96019717 262.12961578 349.96523094 C266.20422255 349.96992115 270.27835727 349.95583705 274.35286903 349.92821884 C275.83655815 349.92137802 277.32029684 349.92110242 278.80398369 349.92841911 C297.75485479 350.01232502 314.55237751 344.91215509 328.58732605 331.71531677 C340.26373802 320.12920658 346.83608203 303.9814799 346.97644174 287.58726287 C346.97334454 286.79716897 346.97024733 286.00707508 346.96705627 285.19303894 C346.97385294 283.89034447 346.97385294 283.89034447 346.98078692 282.56133294 C346.99334186 279.68145283 346.99181636 276.801764 346.99015808 273.92185974 C346.99614889 271.84460205 347.00295571 269.76734658 347.01051331 267.69009399 C347.02812401 262.06801263 347.0328666 256.44599221 347.03414488 250.82388592 C347.03556981 247.30567739 347.03984588 243.78748419 347.04513931 240.26927948 C347.06362315 227.97914655 347.07181197 215.6890569 347.07023621 203.39891052 C347.0690352 191.96885634 347.09013387 180.5389911 347.12172353 169.10898471 C347.14793146 159.27339252 347.15860161 149.43786189 347.15732539 139.60223508 C347.15681709 133.73774897 347.16242689 127.87343091 347.18368149 122.0089798 C347.20314007 116.48980192 347.20313633 110.97095111 347.18864822 105.45176125 C347.18656848 103.43548158 347.19121074 101.41918102 347.20336914 99.40293694 C347.31836112 78.99920329 343.39201713 61.76571372 328.95695496 46.50022888 C321.29026997 38.75148458 312.93940299 33.99933024 302.69963074 30.38768005 C301.73801592 30.04168447 300.7764011 29.6956889 299.78564644 29.3392086 C294.40834284 27.83364069 288.90765367 28.10542702 283.36634827 28.12025452 C282.12405618 28.1157234 280.88176409 28.11119229 279.60182679 28.10652387 C276.16519065 28.09607211 272.7287642 28.09455087 269.29212713 28.09691262 C265.5809769 28.09732154 261.86985764 28.08627436 258.15872192 28.07679749 C250.89148878 28.06020157 243.62428809 28.05468854 236.35703759 28.05357273 C230.44674662 28.0526214 224.53646633 28.04850688 218.62617874 28.04217148 C201.85543781 28.02456142 185.08472246 28.01533202 168.31397222 28.01683243 C167.4103118 28.01691234 166.50665137 28.01699225 165.5756073 28.01707458 C164.67083834 28.01715635 163.76606938 28.01723811 162.83388318 28.01732235 C148.18021759 28.01813475 133.52665492 27.99900798 118.87301908 27.97079785 C103.81305211 27.94203524 88.75313527 27.92825948 73.69314015 27.9299854 C65.24368959 27.93064823 56.79434686 27.92520327 48.34492111 27.9036293 C41.14882289 27.88537281 33.95288135 27.88110655 26.75676994 27.89464815 C23.0892685 27.90115592 19.42206726 27.9013752 15.7545948 27.88394165 C11.76777703 27.8651861 7.7816473 27.87782267 3.79481506 27.89320374 C2.65071761 27.88291661 1.50662016 27.87262948 0.32785308 27.86203063 C-19.16837635 28.0274531 -35.89525731 37.45880867 -47.88240051 52.5322113 Z " fill="#003E4F" transform="translate(355.3003692626953,143.61231994628906)"/>
<path d="M0 0 C1.18144567 -0.00297112 2.36289133 -0.00594224 3.58013839 -0.0090034 C6.85162827 -0.01616763 10.1230861 -0.01886148 13.39458263 -0.01960087 C16.92653861 -0.02145623 20.45848331 -0.02900622 23.99043274 -0.03573608 C31.71204544 -0.04930313 39.43365294 -0.05534223 47.15527558 -0.05974674 C51.98273659 -0.0625132 56.8101956 -0.06675141 61.63765526 -0.07125092 C75.01924546 -0.08344388 88.40083406 -0.09374156 101.7824297 -0.09712601 C103.06656108 -0.09745536 103.06656108 -0.09745536 104.37663452 -0.09779136 C105.23471298 -0.09800964 106.09279143 -0.09822791 106.97687227 -0.09845281 C108.71551311 -0.09889626 110.45415396 -0.09934283 112.1927948 -0.09979248 C113.48641972 -0.10012463 113.48641972 -0.10012463 114.80617847 -0.10046348 C128.75880051 -0.10440564 142.71137012 -0.12184172 156.66397194 -0.145152 C171.00975348 -0.16892431 185.3555088 -0.18133061 199.70131034 -0.18249393 C207.74735251 -0.18340765 215.79332647 -0.18908279 223.83934975 -0.20731354 C230.69570743 -0.22279442 237.55197584 -0.22778847 244.4083477 -0.21957543 C247.9000972 -0.21569631 251.39166737 -0.21646237 254.88339424 -0.23063278 C285.19921892 -0.33276127 311.34620629 3.33158191 334.11100769 24.90606689 C349.87607497 40.67113417 362.3569525 62.47472329 362.49311239 85.33381248 C362.49283584 86.54940294 362.49283584 86.54940294 362.49255371 87.78955078 C362.4962304 88.65979204 362.49990709 89.53003331 362.50369519 90.42664552 C362.51470763 93.34264354 362.51857182 96.2586059 362.52238464 99.17462158 C362.52865142 101.2659771 362.53529841 103.3573315 362.54229736 105.44868469 C362.56332475 112.31988756 362.57370247 119.19109061 362.58366394 126.06231689 C362.58771279 128.43221295 362.59182975 130.80210888 362.59601402 133.1720047 C362.61506731 144.31366249 362.62929483 155.45531367 362.63762599 166.59698462 C362.64738193 179.43057755 362.67365799 192.26399724 362.71412688 205.09752917 C362.74437238 215.03242214 362.75910308 224.96726571 362.762407 234.9022038 C362.76474898 240.82779204 362.77359724 246.75319525 362.79886818 252.67873383 C362.82229996 258.26350126 362.82632181 263.84796386 362.8161068 269.43276787 C362.81561489 271.47036445 362.82183212 273.50797681 362.83566284 275.5455265 C363.01892356 304.17127001 354.73566007 328.39860801 334.34538269 349.14044189 C333.65960144 349.83911377 332.97382019 350.53778564 332.26725769 351.25762939 C315.75043728 366.97919549 292.92590711 374.23609739 270.54069519 374.15997314 C269.75186951 374.15856323 268.96304382 374.15715332 268.15031433 374.15570068 C266.2153339 374.15203872 264.28035731 374.14643459 262.34538269 374.14044189 C262.35426514 375.1920047 262.36314758 376.2435675 262.37229919 377.32699585 C262.45343516 387.24374755 262.5133722 397.16043178 262.55263138 407.07744026 C262.57349361 412.17573012 262.60178652 417.27375173 262.6471405 422.37188721 C262.69064665 427.29318753 262.71453006 432.21423004 262.72489166 437.13570786 C262.73227445 439.01198255 262.74669142 440.88824336 262.76830292 442.76440811 C262.79740046 445.39543238 262.80133607 448.02539553 262.79948425 450.65655518 C262.81386536 451.4297963 262.82824646 452.20303741 262.84306335 452.99971008 C262.80352839 458.20127313 261.65730086 461.15061738 258.34538269 465.14044189 C253.96833329 468.05847483 250.56074498 468.78092498 245.34538269 468.14044189 C239.63367024 465.66177423 235.55373033 461.76611702 231.01335144 457.56231689 C228.3817488 455.17345359 225.67664108 452.93058773 222.90788269 450.70294189 C218.13542066 446.84335586 213.6142916 442.76844199 209.09928894 438.61309814 C205.51330985 435.39334671 201.77836777 432.38139014 198.02897644 429.35528564 C195.39829712 427.18411363 192.86595845 424.93802833 190.34538269 422.64044189 C186.92798897 419.52585521 183.44015919 416.54857569 179.84538269 413.64044189 C175.38262056 410.03011747 171.11818736 406.25616261 166.87663269 402.39044189 C163.37009969 399.27352367 159.7197152 396.34729663 156.07194519 393.39825439 C152.6161259 390.53655877 149.31206154 387.52942118 146.02507019 384.47637939 C144.69862488 383.32009033 144.69862488 383.32009033 143.34538269 382.14044189 C142.77303737 381.56958233 142.20069204 380.99872276 141.61100292 380.41056442 C134.88122965 374.2960504 129.06133384 374.16235661 120.23527527 374.30157471 C118.82810004 374.29859261 117.42092852 374.29248822 116.01377869 374.28352356 C112.99820605 374.27094609 109.983796 374.2801965 106.96831703 374.30683136 C102.18741365 374.34890737 97.40733484 374.34148468 92.62631226 374.32788086 C85.0534644 374.31213833 77.48110747 374.32928704 69.90832108 374.3605516 C56.37436909 374.41582339 42.84041024 374.42431245 29.3063671 374.40704799 C24.56748008 374.40241645 19.82905444 374.41494904 15.0902468 374.44215345 C12.12430421 374.45657184 9.15843283 374.45870254 6.19245911 374.45811272 C4.19132122 374.46157712 2.19022662 374.48014043 0.18917847 374.49940491 C-24.66225102 374.45032126 -45.80651007 364.26842324 -63.71711731 347.45294189 C-80.65317625 329.86942798 -89.80745744 305.66439178 -89.80178833 281.40267944 C-89.80546502 280.54706354 -89.80914171 279.69144764 -89.81292981 278.80990398 C-89.82390401 275.95539609 -89.82779984 273.10092469 -89.83161926 270.24639893 C-89.8378888 268.19415676 -89.84453603 266.14191572 -89.85153198 264.0896759 C-89.87252197 257.35921003 -89.88293182 250.62874407 -89.89289856 243.89825439 C-89.89694845 241.57478702 -89.90106544 239.25131977 -89.90524864 236.92785263 C-89.92429168 226.00618335 -89.93852281 215.08452078 -89.94686061 204.1628381 C-89.95662044 191.58848603 -89.98291106 179.01431057 -90.0233615 166.44002068 C-90.05360901 156.70041484 -90.06833778 146.96085937 -90.07164162 137.2212075 C-90.07398283 131.41413705 -90.08282143 125.60725547 -90.1081028 119.80023575 C-90.13153906 114.32870704 -90.13555469 108.85748946 -90.12534142 103.38592339 C-90.12484966 101.39025138 -90.13106228 99.39456324 -90.14489746 97.39893913 C-90.33094684 68.9442935 -81.69841194 44.83360991 -61.77961731 23.95294189 C-45.08089538 7.86672135 -22.89665935 -0.01798375 0 0 Z M-48.65461731 49.14044189 C-58.76522241 61.67091138 -63.80566638 76.39960045 -63.80178833 92.49893188 C-63.80546502 93.32581406 -63.80914171 94.15269624 -63.81292981 95.00463545 C-63.82391851 97.76784684 -63.82780234 100.53102057 -63.83161926 103.29425049 C-63.83788774 105.27900307 -63.84453488 107.26375449 -63.85153198 109.24850464 C-63.87253579 115.76195464 -63.88293357 122.27540476 -63.89289856 128.78887939 C-63.89694802 131.03652585 -63.901065 133.28417218 -63.90524864 135.53181839 C-63.92429524 146.09735366 -63.93852525 156.66288198 -63.94686061 167.22843111 C-63.95661979 179.39586224 -63.98290718 191.56311083 -64.0233615 203.73047769 C-64.05360467 213.15242834 -64.0683374 222.57432692 -64.07164162 231.99632514 C-64.07398347 237.61502736 -64.08283033 243.23353445 -64.1081028 248.8521843 C-64.13153119 254.14641213 -64.13555781 259.4403184 -64.12534142 264.73458481 C-64.12484946 266.66617406 -64.1310682 268.59777995 -64.14489746 270.52931976 C-64.28497742 291.27345184 -60.70472781 310.54197747 -45.84162903 326.08135986 C-33.10429532 338.86209164 -18.27482943 346.41443967 -0.10700989 346.5549469 C1.24186794 346.55058505 2.59074491 346.54595275 3.93962097 346.54107666 C5.38623112 346.54683017 6.83283647 346.55391742 8.2794342 346.56222534 C11.37538731 346.57725232 14.47116892 346.58312021 17.56715775 346.58169746 C22.46817223 346.57965158 27.36895846 346.59931087 32.26991272 346.62187195 C41.78669621 346.66272035 51.30346118 346.68142371 60.8203125 346.69804382 C72.94108867 346.72044641 85.06181145 346.75404158 97.18250072 346.80524296 C102.04918342 346.82509732 106.91574551 346.83474002 111.78246713 346.83619511 C114.81368989 346.83895513 117.8448465 346.84980586 120.87604141 346.86270523 C122.27560815 346.86696608 123.67519007 346.86785771 125.07476044 346.86503029 C139.67919676 346.8389217 147.61149277 349.64957952 158.53288269 359.32794189 C163.015395 363.26080037 167.51784811 367.14272166 172.15788269 370.89044189 C175.64774157 373.71532028 179.02548783 376.61761769 182.34538269 379.64044189 C186.56955124 383.4860293 190.93491342 387.1077516 195.37272644 390.70294189 C200.4966589 394.90443185 205.50123675 399.24485376 210.52067566 403.57012939 C212.36715349 405.15917748 214.21698114 406.74423215 216.06803894 408.32794189 C216.67583191 408.84799805 217.28362488 409.3680542 217.90983582 409.90386963 C219.10248717 410.92428128 220.29519411 411.94462796 221.48796082 412.96490479 C225.35798847 416.28025064 229.19355668 419.63134397 232.98991394 423.03106689 C234.18243016 424.24600177 234.18243016 424.24600177 235.34538269 424.14044189 C235.35124893 423.32913315 235.35711517 422.5178244 235.36315918 421.68193054 C235.42118699 414.01679502 235.49332094 406.35198081 235.5810976 398.68713284 C235.62572695 394.74702966 235.66499907 390.8070281 235.69181824 386.86676025 C235.71792596 383.06049296 235.75838013 379.25461829 235.80856895 375.44859505 C235.82518743 374.00027431 235.83673287 372.55188573 235.8429966 371.1034832 C235.9109993 356.81773025 235.9109993 356.81773025 239.34538269 351.14044189 C244.50338283 347.06833652 250.00819413 347.02031546 256.37663269 346.92950439 C257.75945626 346.90139806 259.14226858 346.87273343 260.52507019 346.84356689 C262.67252309 346.8027001 264.81977471 346.76576008 266.967453 346.73907471 C287.42628767 346.4637586 303.57106449 341.543818 318.49772644 327.05059814 C330.23476323 314.5926685 336.50503696 298.95384252 336.48582458 281.88874817 C336.48879571 281.06130928 336.49176683 280.2338704 336.49482799 279.38135761 C336.50349521 276.61036827 336.50502159 273.83942223 336.5065155 271.06842041 C336.51114524 269.08057056 336.51617011 267.09272159 336.52156067 265.10487366 C336.53467561 259.70357587 336.5411284 254.3022905 336.54557133 248.90097928 C336.5485048 245.52267303 336.55261024 242.14437015 336.5570755 238.7660656 C336.57075089 228.18557869 336.58041614 217.60509952 336.58427739 207.02460438 C336.58875196 194.83170635 336.60627179 182.63892076 336.63527799 170.4460569 C336.65694288 161.00971963 336.66698431 151.57341387 336.66831851 142.137052 C336.66936352 136.50725888 336.67520584 130.87757146 336.69313812 125.24780464 C336.70970098 119.94460628 336.71173464 114.64159212 336.70299911 109.338377 C336.702233 107.40111673 336.70651473 105.46384623 336.71645737 103.52661133 C336.82043113 81.98981136 332.98721734 62.42182864 317.78288269 46.01544189 C303.91090938 32.97525035 288.37011977 27.99016088 269.59465027 27.99327087 C267.80705606 27.98775584 267.80705606 27.98775584 265.98334885 27.9821294 C262.6832585 27.97303028 259.38321777 27.96839897 256.08311963 27.96574008 C252.52054405 27.96182531 248.95798271 27.95224782 245.39541626 27.94352722 C236.7956279 27.92379587 228.19583842 27.91370082 219.5960331 27.90479943 C215.54133147 27.90041107 211.48663114 27.89504568 207.43193054 27.88981056 C193.94482189 27.8728016 180.45771404 27.85830882 166.97059631 27.85106182 C163.47329202 27.84915208 159.97598774 27.84723173 156.47868347 27.84527588 C155.6094987 27.84479214 154.74031393 27.8443084 153.84479022 27.84381 C139.77372746 27.83551482 125.70274984 27.81018509 111.63172424 27.7776952 C97.16956628 27.74457574 82.70745153 27.72660865 68.24525547 27.72341758 C60.13165566 27.721257 52.01818004 27.71257482 43.90461731 27.68695641 C36.99289488 27.66518252 30.0813268 27.6572317 23.16957396 27.66692319 C19.64776374 27.67144864 16.12627154 27.66968523 12.60450554 27.65016174 C-11.88511669 27.53655096 -31.20857376 30.04657114 -48.65461731 49.14044189 Z " fill="#013E4F" transform="translate(798.6546173095703,437.85955810546875)"/>
<path d="M0 0 C7.71490728 2.80810801 12.16211579 9.75141199 17 16 C18.45552662 17.73152988 19.91386302 19.46070175 21.375 21.1875 C58.84230872 67.11097214 88.71373958 134.54592509 84 195 C82.34960926 199.69058422 80.30390834 202.47379293 76 205 C72.20187317 206.19099962 68.78420466 206.66300212 64.9921875 205.25390625 C60.09160135 202.38696415 56.09721471 198.40791293 51.94140625 194.58203125 C8.91083487 156.80884708 -50.17763436 131.19024666 -106.8203125 123.765625 C-112.13423578 122.48610539 -116.14163542 119.66364747 -119 115 C-120.20643566 111.38069302 -120.32268559 108.80768995 -120 105 C-117.72664197 100.77804938 -115.89366935 98.92025201 -112 96 C-107.38 96 -102.76 96 -98 96 C-98 79.5 -98 63 -98 46 C-101.96 45.01 -105.92 44.02 -110 43 C-114.80491868 40.51173854 -117.53355793 37.83802098 -120 33 C-120.65293024 27.77655808 -119.845108 24.41482276 -117 20 C-113.51161255 16.20381365 -110.51808255 15.42432749 -105.58691406 14.96606445 C-100.75317987 15.02947414 -96.45316733 16.6415474 -91.9375 18.25 C-90.37745239 18.79092285 -90.37745239 18.79092285 -88.78588867 19.34277344 C-65.53223383 27.63078937 -36.82847157 39.17152843 -19 57 C-18.99120064 56.13675613 -18.99120064 56.13675613 -18.98222351 55.256073 C-18.91817164 49.25340288 -18.83372168 43.25126305 -18.73754883 37.24902344 C-18.70434334 35.01048789 -18.67629784 32.77186951 -18.65356445 30.53320312 C-18.61993855 27.31083961 -18.56761728 24.08923226 -18.51171875 20.8671875 C-18.50532883 19.87008759 -18.4989389 18.87298767 -18.49235535 17.84567261 C-18.37990479 12.50256912 -18.03610878 8.59344865 -15 4 C-10.32418849 -0.23049613 -6.06758368 -1.13896622 0 0 Z " fill="#013E4F" transform="translate(870,201)"/>
<path d="M0 0 C0.80125809 -0.01283524 1.60251617 -0.02567047 2.42805481 -0.03889465 C3.72183296 -0.04997505 3.72183296 -0.04997505 5.04174805 -0.0612793 C5.933311 -0.06935104 6.82487396 -0.07742279 7.74345398 -0.08573914 C9.63054466 -0.09956711 11.51766022 -0.11029502 13.40478516 -0.11816406 C16.28230479 -0.1353715 19.15867361 -0.17926792 22.03588867 -0.22338867 C23.8711667 -0.2335166 25.70645448 -0.24203239 27.54174805 -0.2487793 C28.82641716 -0.27504143 28.82641716 -0.27504143 30.13703918 -0.30183411 C30.94775375 -0.29890854 31.75846832 -0.29598297 32.59375 -0.29296875 C33.29973831 -0.29883499 34.00572662 -0.30470123 34.73310852 -0.31074524 C39.65294397 0.75204774 42.45019736 3.3398055 45.12969971 7.48809814 C45.77822912 8.781151 46.4059291 10.08480449 47.01538086 11.39672852 C47.35406315 12.10167576 47.69274544 12.806623 48.04169083 13.53293228 C51.5499164 21.0324208 54.12906841 28.77285449 56.6003418 36.66137695 C57.0970546 38.21174704 57.5949919 39.76172526 58.09405518 41.31134033 C59.39610691 45.36430108 60.68312853 49.42186591 61.96630859 53.48083496 C63.23476273 57.48627971 64.51515131 61.48789586 65.7956543 65.48950195 C66.17333057 66.66989154 66.17333057 66.66989154 66.55863667 67.87412739 C67.06762116 69.46479906 67.57666867 71.05545058 68.08577919 72.64608192 C68.85283628 75.04417559 69.61840184 77.44274189 70.38383484 79.84135437 C75.76111082 96.67295223 81.35675927 113.42996678 86.9909668 130.17700195 C87.44308636 131.52214495 87.89517438 132.86729855 88.347229 134.21246338 C90.87116627 141.72045937 93.40511358 149.22503508 95.94677734 156.72705078 C97.19236417 160.40554395 98.43443141 164.08521479 99.67651367 167.76489258 C100.50365098 170.20836594 101.3311216 172.6517265 102.15893555 175.0949707 C102.55740692 176.27493622 102.9558783 177.45490173 103.36642456 178.67062378 C105.36253567 184.54354209 107.42094657 190.38202115 109.60668945 196.18725586 C110.02606277 197.31013504 110.4454361 198.43301422 110.8775177 199.58992004 C111.66734061 201.69069474 112.4705924 203.78649447 113.29032898 205.8757782 C115.90948614 212.85345515 117.75734537 219.90050646 114.8034668 227.05200195 C109.8391223 232.87226792 109.8391223 232.87226792 105.43237305 233.59887695 C100.68058843 233.83098584 97.74810197 233.60375087 93.5534668 231.23950195 C87.66706093 224.20452909 85.33961961 214.7243061 82.4440918 206.15356445 C82.02802673 204.93043549 81.61196167 203.70730652 81.18328857 202.44711304 C80.30992963 199.87802638 79.43963203 197.30792918 78.5715332 194.73706055 C77.45897876 191.44313727 76.3384272 188.15199846 75.21559525 184.86156654 C74.14154411 181.71038108 73.0743821 178.55687699 72.0065918 175.40356445 C71.60353821 174.22235016 71.20048462 173.04113586 70.78521729 171.8241272 C70.41773376 170.73224091 70.05025024 169.64035461 69.67163086 168.51538086 C69.34616272 167.55435455 69.02069458 166.59332825 68.68536377 165.60317993 C67.9909668 163.17700195 67.9909668 163.17700195 67.9909668 160.17700195 C34.3309668 160.17700195 0.6709668 160.17700195 -34.0090332 160.17700195 C-34.9990332 163.80700195 -35.9890332 167.43700195 -37.0090332 171.17700195 C-37.60645847 173.12316451 -38.21984531 175.06465525 -38.86254883 176.99633789 C-39.19299194 177.99397156 -39.52343506 178.99160522 -39.8638916 180.01947021 C-40.21085083 181.05629944 -40.55781006 182.09312866 -40.9152832 183.16137695 C-41.46424255 184.81112518 -41.46424255 184.81112518 -42.02429199 186.49420166 C-42.79263452 188.80058094 -43.56247025 191.10646327 -44.33374023 193.41186523 C-45.5099524 196.92975113 -46.6797141 200.44973656 -47.84887695 203.9699707 C-48.59979414 206.2214012 -49.35108337 208.47270764 -50.1027832 210.72387695 C-50.44974243 211.7688031 -50.79670166 212.81372925 -51.1541748 213.89031982 C-56.71874821 230.47787696 -56.71874821 230.47787696 -62.0090332 233.17700195 C-67.37704193 233.89918898 -72.18565637 234.10729626 -77.0715332 231.61450195 C-80.46657804 227.34331651 -82.05735546 223.99081671 -81.91015625 218.46557617 C-80.93281708 210.98064389 -78.14123413 203.86123628 -75.71606445 196.74731445 C-75.17203045 195.12938561 -74.62885111 193.51116916 -74.08647156 191.89268494 C-72.93697824 188.46775191 -71.78211898 185.04469778 -70.62280273 181.62307739 C-68.80739807 176.26451029 -67.00449845 170.90179323 -65.2043457 165.53808594 C-64.60477741 163.75193432 -64.00519859 161.96578624 -63.40560913 160.17964172 C-63.11089092 159.30163721 -62.81617271 158.4236327 -62.51252365 157.51902199 C-61.62476946 154.87571804 -60.73585384 152.23280739 -59.84658813 149.5900116 C-55.66570348 137.16179977 -51.54357624 124.71607467 -47.5090332 112.23950195 C-46.98777588 110.63026889 -46.46645435 109.02105662 -45.94506836 107.41186523 C-45.15867668 104.98415932 -44.37247161 102.55639393 -43.58691406 100.12841797 C-40.04081641 89.17368097 -36.45850756 78.23074799 -32.87768555 67.287323 C-31.38579706 62.72720301 -29.89563692 58.16651868 -28.40542603 53.60585022 C-27.6933594 51.43240836 -26.97867717 49.2598216 -26.26132202 47.08811951 C-24.36599086 41.34969465 -22.5107781 35.6023332 -20.71069336 29.83325195 C-19.94168728 27.41657355 -19.17264533 24.99990656 -18.40356445 22.58325195 C-17.89801277 20.91824646 -17.89801277 20.91824646 -17.38224792 19.21960449 C-15.13376401 12.23268619 -12.32620991 6.36847352 -7.0090332 1.17700195 C-4.33753776 0.28650347 -2.74327729 0.03838166 0 0 Z " fill="#003E4F" transform="translate(481.009033203125,219.822998046875)"/>
<path d="M0 0 C5.03041943 2.4220538 6.90206715 4.91155787 9 10 C9.34057617 13.34326172 9.34057617 13.34326172 9.29296875 16.9296875 C9.28330078 18.21875 9.27363281 19.5078125 9.26367188 20.8359375 C9.23861188 22.18229786 9.21321712 23.52865203 9.1875 24.875 C9.17243504 26.24477705 9.15874982 27.61457002 9.14648438 28.984375 C9.11121379 32.32332358 9.06191896 35.66145675 9 39 C10.08914703 38.99333817 11.17829407 38.98667633 12.30044556 38.97981262 C22.57041366 38.91896706 32.84034512 38.87401076 43.11045265 38.84456348 C48.3902806 38.82891535 53.6699629 38.80769245 58.94970703 38.77368164 C64.04605921 38.74105808 69.14227139 38.72314057 74.23871994 38.71536827 C76.18196186 38.70983017 78.12519621 38.69901559 80.06837845 38.68280983 C82.79266093 38.66099582 85.51636673 38.65803475 88.24072266 38.65942383 C89.04201599 38.648638 89.84330933 38.63785217 90.66888428 38.6267395 C95.51549396 38.65343585 98.79052063 39.34363209 103 42 C106.87407316 46.29289188 108.36663128 48.96597425 108.28125 54.8359375 C107.69060642 59.3806117 105.49311594 62.80171311 101.90551758 65.6809082 C97.92292509 67.48898712 94.52032312 67.37604249 90.19921875 67.29296875 C88.9446563 67.28660149 88.9446563 67.28660149 87.66474915 67.28010559 C85.00533235 67.26337364 82.346686 67.22573226 79.6875 67.1875 C77.87956827 67.17244604 76.07162461 67.15875888 74.26367188 67.14648438 C69.84215311 67.11348816 65.42120698 67.06174428 61 67 C60.89042969 67.61891113 60.78085937 68.23782227 60.66796875 68.87548828 C59.56846974 74.75624368 58.09574659 80.27463209 56 85.875 C55.69803711 86.68308105 55.39607422 87.49116211 55.08496094 88.32373047 C45.71428591 112.6790435 31.30520867 133.80158547 15 154 C22.92095817 162.53684261 31.55579607 169.58430557 40.92480469 176.47167969 C42.81760686 177.86567281 44.69524074 179.27762696 46.5703125 180.6953125 C56.70080464 188.25376902 67.66716656 194.24201747 78.89453125 200.0078125 C80.04308594 200.60335937 81.19164062 201.19890625 82.375 201.8125 C83.37273437 202.31394531 84.37046875 202.81539062 85.3984375 203.33203125 C89.3236033 205.84861653 91.52876384 208.58629152 93 213 C93.48097146 218.00210322 92.93588634 221.32134818 90.2578125 225.48828125 C88.13338424 228.04155372 86.13373376 228.97551012 83 230 C76.11786419 230.62295195 71.79347975 229.00056038 65.75 225.8125 C64.8844751 225.36616211 64.0189502 224.91982422 63.12719727 224.45996094 C41.22465702 212.90792977 21.01984996 197.87856335 2.59521484 181.40576172 C0.10887545 179.21470842 -2.4431638 177.10813272 -5 175 C-5.77601563 175.72703125 -6.55203125 176.4540625 -7.3515625 177.203125 C-63.73120455 229.79996617 -63.73120455 229.79996617 -88.21875 230.25390625 C-93.19669904 229.91964314 -96.43505876 228.72683171 -99.8125 225 C-102.2705924 220.86005491 -102.60766601 216.70047531 -102 212 C-100.10475007 207.79748928 -97.98058808 205.8094464 -94.01953125 203.6875 C-93.21862061 203.25477783 -92.41770996 202.82205566 -91.5925293 202.3762207 C-90.73699463 201.92206787 -89.88145996 201.46791504 -89 201 C-88.13608643 200.53875732 -87.27217285 200.07751465 -86.38208008 199.60229492 C-84.56993465 198.63488426 -82.75767624 197.6676852 -80.9453125 196.70068359 C-73.14741255 192.51687266 -65.55668828 188.41262061 -58.5546875 182.9765625 C-56.62768915 181.48564329 -54.7026728 180.08535665 -52.6953125 178.7109375 C-44.65214279 173.18569716 -37.52383579 167.11716768 -30.484375 160.36865234 C-28.93214216 158.93743239 -27.32523238 157.60165107 -25.6875 156.26953125 C-22.97745296 154.28392106 -22.97745296 154.28392106 -22 152 C-22.66 152 -23.32 152 -24 152 C-25.33764648 150.50976562 -25.33764648 150.50976562 -26.87109375 148.40625 C-27.43989258 147.6313623 -28.00869141 146.85647461 -28.59472656 146.05810547 C-29.2028418 145.21393066 -29.81095703 144.36975586 -30.4375 143.5 C-31.06495117 142.63648926 -31.69240234 141.77297852 -32.33886719 140.88330078 C-34.23574983 138.26244287 -36.12024881 135.63316556 -38 133 C-38.51900879 132.27522461 -39.03801758 131.55044922 -39.57275391 130.80371094 C-61.10626185 100.58557863 -61.10626185 100.58557863 -60 89 C-58.25580563 84.86901333 -55.88905804 82.23413972 -52 80 C-47.20175664 79.20564199 -43.49611576 79.28879717 -39.06640625 81.39453125 C-34.65365373 84.57599825 -32.44502875 89.52303641 -29.875 94.1875 C-22.26082514 107.54035592 -13.67167384 120.04662845 -4 132 C-0.35031887 128.51180918 2.7689733 124.87760518 5.6875 120.75 C6.32715698 119.84580322 6.32715698 119.84580322 6.97973633 118.92333984 C16.84696637 104.74156903 25.04738077 89.8088751 30.09814453 73.23925781 C30.45522491 72.07033997 30.8123053 70.90142212 31.1802063 69.69708252 C31.45073822 68.80704529 31.72127014 67.91700806 32 67 C31.2788545 67.00368717 30.55770901 67.00737434 29.81471062 67.01117325 C12.26268657 67.0995342 -5.28928094 67.16571439 -22.84147835 67.20724869 C-31.32962154 67.22786857 -39.81761621 67.2559781 -48.30566406 67.30175781 C-55.70438451 67.34164327 -63.10299738 67.36743699 -70.50182235 67.37635398 C-74.41901522 67.38156588 -78.33590036 67.39380344 -82.25299454 67.42292023 C-85.94169418 67.45011655 -89.62996 67.45843663 -93.31875038 67.45243073 C-95.31436832 67.45405191 -97.30993926 67.47555265 -99.30543518 67.49768066 C-107.32469751 67.46076993 -110.96237541 66.75916772 -116.8125 61.3125 C-118.69494135 57.64669315 -119.23550306 54.10745036 -119 50 C-117.51971255 45.66724852 -114.98351582 42.31300919 -111 40 C-107.11624284 38.70541428 -103.44439883 38.86896219 -99.39770508 38.88647461 C-98.08031593 38.88625557 -98.08031593 38.88625557 -96.73631287 38.8860321 C-93.83069395 38.88672928 -90.92513898 38.89451261 -88.01953125 38.90234375 C-86.00599706 38.90420862 -83.99246242 38.9056322 -81.97892761 38.90663147 C-76.67708078 38.91045121 -71.37526131 38.92027688 -66.07342529 38.93133545 C-60.66418833 38.94156123 -55.25494696 38.9461316 -49.84570312 38.95117188 C-39.23045673 38.96189961 -28.61523064 38.97896954 -18 39 C-18.0314209 37.68394775 -18.0314209 37.68394775 -18.06347656 36.34130859 C-18.131926 33.06483317 -18.18193051 29.78912488 -18.21972656 26.51220703 C-18.23975843 25.09802205 -18.26699248 23.68391903 -18.30175781 22.27001953 C-18.35065489 20.22928581 -18.37305123 18.1896531 -18.390625 16.1484375 C-18.4220459 14.31031494 -18.4220459 14.31031494 -18.45410156 12.43505859 C-17.79689662 7.4636212 -15.57960407 4.35394635 -11.8125 1.125 C-7.79534134 -0.48186346 -4.26652255 -0.66970107 0 0 Z " fill="#013F50" transform="translate(941,507)"/>
<path d="M0 0 C5.99643157 2.38938269 10.81969743 7.2966328 15.7265625 11.36328125 C58.6630359 46.33422493 111.91103965 69.50423383 166.60449219 77.62036133 C172.81882198 78.58598116 176.96607123 79.68358112 181.25 84.5625 C184.1510818 88.60329251 184.33374044 90.99389346 184 96 C182.25583626 100.68170268 180.12964161 103.21249191 176 106 C168.45016625 108.51661125 160.51894856 106.38215883 152.9375 104.875 C151.22590698 104.53831299 151.22590698 104.53831299 149.47973633 104.19482422 C101.23864516 94.47647356 51.96085373 75.67333717 13 45 C12.67 45.33 12.34 45.66 12 46 C17.509485 83.04968766 34.08187346 119.25674245 55 150 C55.0093457 148.91581787 55.01869141 147.83163574 55.02832031 146.71459961 C55.06838072 142.66813003 55.13418286 138.62240798 55.20751953 134.57641602 C55.23563652 132.82976937 55.25689697 131.08299768 55.27099609 129.33618164 C55.2925552 126.81592215 55.33926833 124.29715142 55.390625 121.77734375 C55.39185364 121.00414291 55.39308228 120.23094208 55.39434814 119.43431091 C55.55661555 113.34277765 57.15858277 108.82067696 61.60546875 104.40625 C65.77609079 102.01715293 68.94001283 101.6920382 73.69140625 102.25 C79.44196403 104.11820151 83.33139595 108.18991201 87.375 112.5 C108.38400894 134.06677023 136.85584529 148.53970824 165.29296875 157.4921875 C178.49385195 161.67455231 178.49385195 161.67455231 183 167 C184.73704155 170.4740831 184.46041616 174.20156669 184 178 C181.80850458 182.38299083 179.59809038 185.20074724 175 187 C166.93788313 187.96151014 159.99186535 185.86457063 152.4375 183.25 C151.26727295 182.85095459 150.0970459 182.45190918 148.89135742 182.04077148 C124.65619765 173.50969562 103.7224459 160.89217285 83 146 C83.00999275 146.86657478 83.00999275 146.86657478 83.02018738 147.75065613 C83.08660998 153.76901682 83.13182935 159.78727319 83.16479492 165.8059082 C83.17987182 168.05139394 83.20033653 170.29685029 83.22631836 172.54223633 C83.26274918 175.77172099 83.27973755 179.00081594 83.29296875 182.23046875 C83.30845261 183.23272995 83.32393646 184.23499115 83.33988953 185.2676239 C83.341992 193.99507606 83.341992 193.99507606 80 198 C75.71186101 201.76519521 73.04404865 203.45433078 67.20703125 203.328125 C54.23784091 201.39996219 44.32090448 183.81793748 37 174 C4.55472359 129.84282601 -18.33045821 74.11459273 -19.375 18.8125 C-19.40110352 18.02222412 -19.42720703 17.23194824 -19.45410156 16.41772461 C-19.4736692 9.91078518 -17.20913962 6.4690384 -12.875 1.625 C-8.57109119 -0.80764411 -4.82702916 -0.83173425 0 0 Z " fill="#013E4F" transform="translate(505,564)"/>
<path d="M0 0 C10.14149173 2.25366483 10.14149173 2.25366483 13.62109375 3.8125 C14.79224731 4.33420776 14.79224731 4.33420776 15.98706055 4.86645508 C16.79570557 5.2405249 17.60435059 5.61459473 18.4375 6 C19.73457886 6.59494263 19.73457886 6.59494263 21.05786133 7.2019043 C41.9201164 16.92417568 60.15475278 29.16246416 77.30175781 44.48339844 C77.86217773 44.98387695 78.42259766 45.48435547 79 46 C79.9295752 46.83192871 79.9295752 46.83192871 80.87792969 47.68066406 C81.49313477 48.22174805 82.10833984 48.76283203 82.7421875 49.3203125 C83.29503418 49.81031738 83.84788086 50.30032227 84.41748047 50.80517578 C88.0060173 53.51457092 91.68767872 53.35936011 96 53 C99.30985953 51.71468232 102.23645869 50.21157328 104.17929077 47.12872314 C105.06138348 44.84078596 105.27466359 43.13528117 105.31884766 40.69042969 C105.33871735 39.84986023 105.35858704 39.00929077 105.37905884 38.14324951 C105.39061005 37.24519592 105.40216125 36.34714233 105.4140625 35.421875 C105.43342865 34.4953009 105.4527948 33.56872681 105.4727478 32.61407471 C105.53244767 29.65947629 105.57889068 26.70483871 105.625 23.75 C105.6631886 21.74477483 105.70224085 19.73956591 105.7421875 17.734375 C105.8381414 12.82304889 105.92220803 7.911646 106 3 C108.85787514 5.68838577 110.96879269 8.29585599 112.953125 11.67578125 C113.48591064 12.5783667 114.01869629 13.48095215 114.56762695 14.41088867 C115.12281006 15.36842041 115.67799316 16.32595215 116.25 17.3125 C117.11661255 18.79810425 117.11661255 18.79810425 118.00073242 20.3137207 C119.67802645 23.20305851 121.34251054 26.09926334 123 29 C123.4139502 29.7228418 123.82790039 30.44568359 124.25439453 31.19042969 C138.63547422 56.53555718 149.23257866 85.9126353 152 115 C150.37300251 113.98235328 148.74854393 112.96064749 147.125 111.9375 C146.22007812 111.36902344 145.31515625 110.80054688 144.3828125 110.21484375 C141.6543199 108.46398693 139.01930614 106.59945589 136.37890625 104.71875 C130.68844423 100.71721115 124.78767098 97.12028438 118.8125 93.5625 C117.15395996 92.57419189 117.15395996 92.57419189 115.46191406 91.56591797 C79.42994075 70.20327572 40.47935512 55.92562216 -1 50 C-0.67 33.5 -0.34 17 0 0 Z " fill="#0FA2E8" transform="translate(772,248)"/>
<path d="M0 0 C0.67869141 0.45826172 0.67869141 0.45826172 1.37109375 0.92578125 C3.90717691 2.62768961 6.45325482 4.31408068 9 6 C9.59554687 6.39687012 10.19109375 6.79374023 10.8046875 7.20263672 C49.96976829 33.24387643 92.72570082 51.02878213 138.87890625 60.17578125 C143.26589304 61.05317861 147.63266966 62.02948215 152 63 C152 79.83 152 96.66 152 114 C131.46058055 109.89211611 111.76753465 98.2329774 95 86 C94.10958008 85.3507959 94.10958008 85.3507959 93.20117188 84.68847656 C85.93646838 79.32419442 79.26114536 73.65558389 73.16918945 66.97119141 C69.24504194 62.79421576 65.31839095 60.33497953 59.5234375 59.75 C55.41537148 60.2280295 53.40062803 60.68461198 50.0625 63.3125 C46.13866339 68.425378 45.67709027 72.30685512 45.5859375 78.703125 C45.56657135 79.54091492 45.5472052 80.37870483 45.5272522 81.24188232 C45.46759276 83.91115213 45.42112587 86.58046539 45.375 89.25 C45.33680764 91.06251854 45.29775518 92.87501918 45.2578125 94.6875 C45.16190248 99.12485415 45.0778212 103.56229325 45 108 C42.49095884 105.59409283 40.37479008 103.30150531 38.5546875 100.33984375 C38.122771 99.63923828 37.69085449 98.93863281 37.24584961 98.21679688 C36.79346924 97.46462891 36.34108887 96.71246094 35.875 95.9375 C35.39490479 95.14021484 34.91480957 94.34292969 34.42016602 93.52148438 C18.73929013 67.21243066 0 31.41355413 0 0 Z " fill="#FD428E" transform="translate(516,607)"/>
<path d="M0 0 C5.28 0 10.56 0 16 0 C16.4218457 1.35641602 16.84369141 2.71283203 17.27832031 4.11035156 C25.11796223 29.29843282 33.01511309 54.4570018 41.44921875 79.453125 C41.86864746 80.69642578 42.28807617 81.93972656 42.72021484 83.22070312 C43.6216616 85.88273971 44.52842037 88.54260075 45.43994141 91.20117188 C45.90407075 92.56637246 46.3681039 93.93160576 46.83203125 95.296875 C47.24815674 96.51213867 47.66428223 97.72740234 48.09301758 98.97949219 C49 102 49 102 49 105 C21.61 105 -5.78 105 -34 105 C-30.62592561 92.62839391 -30.62592561 92.62839391 -28.87451172 87.42822266 C-28.48335175 86.26134918 -28.09219177 85.09447571 -27.68917847 83.89224243 C-27.27354645 82.66194305 -26.85791443 81.43164368 -26.4296875 80.1640625 C-25.98434825 78.83690338 -25.53938032 77.50961962 -25.09475708 76.18222046 C-23.46017801 71.30484458 -21.81924125 66.42961394 -20.17791748 61.55450439 C-18.5706386 56.77976125 -16.96667092 52.00392294 -15.3671875 47.2265625 C-15.14253563 46.55598061 -14.91788376 45.88539871 -14.68642426 45.19449615 C-10.87114962 33.78866004 -7.24836413 22.32941751 -3.73458862 10.82730103 C-3.38792145 9.69368134 -3.04125427 8.56006165 -2.68408203 7.39208984 C-2.230186 5.89686295 -2.230186 5.89686295 -1.76712036 4.37142944 C-1 2 -1 2 0 0 Z " fill="#74EAD1" transform="translate(490,248)"/>
<path d="M0 0 C36.3 0 72.6 0 110 0 C109.67 1.98 109.34 3.96 109 6 C108.01 4.02 108.01 4.02 107 2 C105.88072617 2.00222061 104.76145233 2.00444122 103.60826111 2.00672913 C93.00259486 2.02709911 82.39693264 2.04203842 71.79125118 2.05181217 C66.34023656 2.05700603 60.88923788 2.06403933 55.43823242 2.07543945 C50.1667878 2.08639366 44.89535841 2.0923031 39.62390327 2.09487724 C37.623925 2.0967091 35.62394746 2.10028565 33.62397575 2.10573006 C22.36754957 2.13512303 11.22052229 1.9578685 0 1 C0 0.67 0 0.34 0 0 Z " fill="#F46D88" transform="translate(863,574)"/>
<path d="M0 0 C0.66 0.33 1.32 0.66 2 1 C1.67 1.825 1.34 2.65 1 3.5 C-0.45130559 8.57956956 -0.92087685 12.88198325 1.25 17.875 C5.02086159 22.45390337 9.37533838 22.43753384 15 23 C15 23.33 15 23.66 15 24 C6.16152948 24.61783483 6.16152948 24.61783483 2.0625 22.4375 C-0.98689365 18.83367114 -2.97011008 15.52783311 -3.02734375 10.6875 C-2.66219081 6.65090025 -1.96163153 3.57614307 0 0 Z " fill="#0B2E42" transform="translate(402,429)"/>
<path d="M0 0 C4 5 4 5 4 7 C3.01 7 2.02 7 1 7 C1 17.23 1 27.46 1 38 C0.67 38 0.34 38 0 38 C0 25.46 0 12.92 0 0 Z " fill="#54CEFB" transform="translate(879,252)"/>
<path d="M0 0 C0.66 0.33 1.32 0.66 2 1 C-1.3 3.97 -4.6 6.94 -8 10 C-8.66 9.34 -9.32 8.68 -10 8 C-6.7 5.36 -3.4 2.72 0 0 Z M-12 9 C-11.34 9.33 -10.68 9.66 -10 10 C-12.77280706 13.08089673 -15.06326356 14.68775452 -19 16 C-19 15.34 -19 14.68 -19 14 C-17.46875 12.7109375 -17.46875 12.7109375 -15.5 11.375 C-14.8503125 10.92898438 -14.200625 10.48296875 -13.53125 10.0234375 C-13.0259375 9.68570313 -12.520625 9.34796875 -12 9 Z " fill="#0B3748" transform="translate(900,677)"/>
<path d="M0 0 C0.33 0.66 0.66 1.32 1 2 C-1.64 2 -4.28 2 -7 2 C-7.268125 2.639375 -7.53625 3.27875 -7.8125 3.9375 C-9 6 -9 6 -12 7 C-12.66 6.34 -13.32 5.68 -14 5 C-9.15742979 0.94271144 -6.31225945 -0.14027243 0 0 Z " fill="#0F3447" transform="translate(767,216)"/>
<path d="M0 0 C0 4.34583931 -2.22005146 6.05802555 -5.04296875 9.19140625 C-7.49350148 11.45607023 -9.74043549 12.36398741 -13 13 C-8.66666667 8.66666667 -4.33333333 4.33333333 0 0 Z " fill="#043748" transform="translate(1120,761)"/>
<path d="M0 0 C2.46503067 1.77174079 3.84833352 3.11554496 4.37109375 6.1640625 C4.54287148 12.36826977 4.54287148 12.36826977 2.47265625 14.77734375 C1.98667969 15.18082031 1.50070312 15.58429687 1 16 C1.01160156 15.09636719 1.02320313 14.19273437 1.03515625 13.26171875 C1.04417969 12.08222656 1.05320312 10.90273438 1.0625 9.6875 C1.07410156 8.51574219 1.08570313 7.34398437 1.09765625 6.13671875 C1.14899898 2.96940805 1.14899898 2.96940805 0 0 Z " fill="#0A2B3D" transform="translate(685,729)"/>
<path d="M0 0 C1.01353122 3.15479435 0.94325104 5.18045829 0.125 8.375 C-0.73821683 11.90369042 -1.44715005 15.40647532 -2 19 C-2.33 19 -2.66 19 -3 19 C-3.55353075 5.18223235 -3.55353075 5.18223235 0 0 Z " fill="#0D3B45" transform="translate(564,671)"/>
<path d="M0 0 C0.99 0.33 1.98 0.66 3 1 C-0.3 4.63 -3.6 8.26 -7 12 C-7.66 11.67 -8.32 11.34 -9 11 C-7.68823998 9.35357683 -6.3755713 7.70787757 -5.0625 6.0625 C-4.33160156 5.14597656 -3.60070312 4.22945313 -2.84765625 3.28515625 C-1 1 -1 1 0 0 Z " fill="#ED6C86" transform="translate(754,483)"/>
<path d="M0 0 C3.63 0.33 7.26 0.66 11 1 C10.67 1.66 10.34 2.32 10 3 C6.7 3 3.4 3 0 3 C0 2.01 0 1.02 0 0 Z " fill="#0A384A" transform="translate(782,808)"/>
<path d="M0 0 C3.11547441 0.67883043 5.85137721 1.74106902 8.75 3.0625 C9.54921875 3.42472656 10.3484375 3.78695312 11.171875 4.16015625 C11.77515625 4.43730469 12.3784375 4.71445312 13 5 C11 6 11 6 8.3984375 5.22265625 C6.90183594 4.64837891 6.90183594 4.64837891 5.375 4.0625 C4.37210938 3.68222656 3.36921875 3.30195312 2.3359375 2.91015625 C1.56507813 2.60980469 0.79421875 2.30945313 0 2 C0 1.34 0 0.68 0 0 Z " fill="#F44698" transform="translate(652,714)"/>
<path d="M0 0 C7.48291572 5.0022779 7.48291572 5.0022779 10 9 C7 9 7 9 5.17578125 7.5390625 C4.56089844 6.90742187 3.94601562 6.27578125 3.3125 5.625 C2.68988281 4.99851562 2.06726563 4.37203125 1.42578125 3.7265625 C0 2 0 2 0 0 Z " fill="#F46E88" transform="translate(958,662)"/>
<path d="M0 0 C0.66 0.33 1.32 0.66 2 1 C1.38511719 1.59748047 1.38511719 1.59748047 0.7578125 2.20703125 C0.21898437 2.73683594 -0.31984375 3.26664062 -0.875 3.8125 C-1.40867187 4.33457031 -1.94234375 4.85664062 -2.4921875 5.39453125 C-4.20776561 7.13259904 -4.20776561 7.13259904 -6 10 C-5.72510809 5.96825194 -5.46508424 4.43105369 -2.4375 1.625 C-1.633125 1.08875 -0.82875 0.5525 0 0 Z " fill="#063645" transform="translate(930,508)"/>
<path d="M0 0 C2.31 1.65 4.62 3.3 7 5 C5 6 5 6 3 6 C2.34 6.66 1.68 7.32 1 8 C0.67 5.36 0.34 2.72 0 0 Z " fill="#EC4998" transform="translate(516,607)"/>
<path d="M0 0 C1.07349791 4.29399165 0.79682816 5.19495213 -1 9 C-1.66 9 -2.32 9 -3 9 C-2.01 6.03 -1.02 3.06 0 0 Z " fill="#83EBD9" transform="translate(460,341)"/>
<path d="M0 0 C0.66 0.33 1.32 0.66 2 1 C1.5359375 2.1446875 1.5359375 2.1446875 1.0625 3.3125 C0.32106407 5.18789677 -0.36228217 7.08684652 -1 9 C-1.66 9 -2.32 9 -3 9 C-2.01 6.03 -1.02 3.06 0 0 Z " fill="#0D3A4D" transform="translate(464,240)"/>
<path d="M0 0 C0.66 0.33 1.32 0.66 2 1 C1.0479279 2.00596297 0.08812654 3.00461563 -0.875 4 C-1.40867187 4.556875 -1.94234375 5.11375 -2.4921875 5.6875 C-4 7 -4 7 -6 7 C-4.60667426 3.63279613 -3.0210714 2.0140476 0 0 Z " fill="#F46F87" transform="translate(911,703)"/>
<path d="M0 0 C0.66 0 1.32 0 2 0 C2.33 0.99 2.66 1.98 3 3 C1.68 4.32 0.36 5.64 -1 7 C-1.66 6.67 -2.32 6.34 -3 6 C-2.01 4.02 -1.02 2.04 0 0 Z " fill="#083549" transform="translate(695,458)"/>
</svg>
